PathFileType	4	(X/Y/Z)	/Users/itak/Documents/Research/Walk-IL/dataset/trc/00322_00011.trc
DataRate	CameraRate	NumFrames	NumMarkers	Units	OrigDataRate	OrigDataStartFrame	OrigNumFrames
100.000000	100.000000	4	57	mm	100.000000	335	537
Frame#	Time	LPSI			L3			STRN			T10			C7			CLAV			RBAK			LBAK			LSHO			LUPA			LAEL			LAOL			LWTS			LWPS			LFRA			LHPS			RSHO			RUPA			RAEL			RAOL			RWTS			RWPS			RFRA			RIFD			RHTS			RHPS			RBHD			LFHD			RFHD			LBHD			LHIP			RASI			LASI			LKNE			LTHI			LANK			LTIP			LTOE			LMT1			LMT5			LHEE			RKNE			RANK			RTIP			RTOE			RMT1			RMT5			RHEE			RPSI			RTHI			RHIP			LHTS			LIFD			*53			*54			*55			*56			
		X1	Y1	Z1	X2	Y2	Z2	X3	Y3	Z3	X4	Y4	Z4	X5	Y5	Z5	X6	Y6	Z6	X7	Y7	Z7	X8	Y8	Z8	X9	Y9	Z9	X10	Y10	Z10	X11	Y11	Z11	X12	Y12	Z12	X13	Y13	Z13	X14	Y14	Z14	X15	Y15	Z15	X16	Y16	Z16	X17	Y17	Z17	X18	Y18	Z18	X19	Y19	Z19	X20	Y20	Z20	X21	Y21	Z21	X22	Y22	Z22	X23	Y23	Z23	X24	Y24	Z24	X25	Y25	Z25	X26	Y26	Z26	X27	Y27	Z27	X28	Y28	Z28	X29	Y29	Z29	X30	Y30	Z30	X31	Y31	Z31	X32	Y32	Z32	X33	Y33	Z33	X34	Y34	Z34	X35	Y35	Z35	X36	Y36	Z36	X37	Y37	Z37	X38	Y38	Z38	X39	Y39	Z39	X40	Y40	Z40	X41	Y41	Z41	X42	Y42	Z42	X43	Y43	Z43	X44	Y44	Z44	X45	Y45	Z45	X46	Y46	Z46	X47	Y47	Z47	X48	Y48	Z48	X49	Y49	Z49	X50	Y50	Z50	X51	Y51	Z51	X52	Y52	Z52	X53	Y53	Z53	X54	Y54	Z54	X55	Y55	Z55	X56	Y56	Z56	X57	Y57	Z57	

336	3.35	229.7208099365234	950.7694091796875	-31.00382232666016	215.8685913085938	1007.607238769531	41.93012619018555	438.1576538085938	1202.5185546875	37.46178436279297	200.7043914794922	1126.055786132812	38.95375823974609	230.7147521972656	1375.627807617188	19.40730667114258	387.9419250488281	1324.308959960938	29.61191940307617	185.7059326171875	1236.8662109375	90.19991302490234	224.4679412841797	1336.549926757812	-80.43817138671875	310.4226989746094	1355.130249023438	-135.7619476318359	280.8073425292969	1238.064575195312	-200.2066192626953	258.7817687988281	1034.256958007812	-206.3173980712891	202.5399017333984	1034.5146484375	-141.6480865478516	297.4114379882812	772.5132446289062	-166.1469879150391	251.1134796142578	774.8255004882812	-217.6645050048828	249.4644927978516	929.7870483398438	-211.4059753417969	227.3522338867188	708.4266967773438	-210.0891876220703	283.6867370605469	1367.631103515625	183.9109802246094	281.0852966308594	1302.355346679688	249.6318969726562	358.24853515625	1047.53173828125	298.544921875	322.6688842773438	1022.590698242188	213.9097137451172	545.6337280273438	878.5569458007812	257.8636169433594	521.2392578125	852.6929931640625	325.9248046875	405.4980163574219	992.6077270507812	311.4189758300781	632.0244750976562	729.0776977539062	271.283203125	613.7933349609375	800.1461181640625	272.1983642578125	569.4254760742188	782.272216796875	324.0267639160156	254.2422790527344	1575.6767578125	95.23262786865234	425.1513366699219	1610.125122070312	-18.75922203063965	412.3008728027344	1611.640014648438	81.36080932617188	246.4393310546875	1564.89306640625	-48.89279556274414	331.6594543457031	902.7064208984375	-121.6241073608398	392.8130798339844	924.7740478515625	188.4535675048828	441.6596374511719	936.4361572265625	-45.49955368041992	495.42578125	462.8364868164062	-69.98137664794922	462.4124755859375	600.1939697265625	-99.29377746582031	422.9196166992188	44.52251052856445	-34.74180221557617	471.3035583496094	238.0907897949219	-63.25823974609375	631.04443359375	36.76314544677734	23.16415023803711	560.8368530273438	25.0211181640625	65.28000640869141	548.067138671875	36.88092041015625	-47.079833984375	390.1769409179688	38.76021957397461	32.78741073608398	358.1632385253906	443.0059204101562	206.1207580566406	14.91342639923096	205.9384613037109	147.8477783203125	285.3715209960938	347.4236450195312	192.9127044677734	91.19202423095703	31.0540657043457	102.2377395629883	69.72186279296875	78.81970977783203	59.58615875244141	34.68281173706055	106.3087615966797	168.9361572265625	4.139366149902344	253.2532043457031	98.83853912353516	216.2620697021484	943.921875	98.65963745117188	370.8910827636719	685.8486328125	224.5310211181641	284.5242919921875	888.2830810546875	215.3331298828125	279.9677734375	691.3798828125	-179.8815460205078	248.5973358154297	613.2810668945312	-156.0691986083984	nan	nan	nan	nan	nan	nan	nan	nan	nan	nan	nan	nan	
337	3.36	238.9365539550781	951.6145629882812	-31.57975959777832	224.7230834960938	1008.745971679688	40.74191284179688	447.16064453125	1203.608764648438	37.95400619506836	210.189208984375	1127.296630859375	37.25337982177734	240.0119018554688	1376.935913085938	18.34573936462402	397.0907592773438	1325.425659179688	29.8011646270752	194.637451171875	1238.113891601562	88.56194305419922	234.5236206054688	1337.819946289062	-81.71755981445312	321.0196228027344	1356.265869140625	-136.2107086181641	293.6183471679688	1238.720336914062	-201.1224975585938	275.5641479492188	1034.442138671875	-208.4500122070312	217.3195648193359	1033.60693359375	-145.4391632080078	320.6846923828125	774.2916870117188	-167.2234191894531	275.2482604980469	774.8576049804688	-219.5151672363281	268.9508361816406	929.7365112304688	-213.6818389892578	253.8483276367188	707.7288208007812	-212.3700408935547	291.8593444824219	1368.68212890625	183.3594360351562	288.5091857910156	1303.178344726562	248.8190002441406	363.1735229492188	1047.529052734375	297.3613586425781	328.2386169433594	1023.339294433594	212.3609161376953	547.8960571289062	875.150390625	258.1979370117188	522.4541015625	849.916015625	326.1536560058594	409.5179443359375	991.9656372070312	310.47802734375	630.6860961914062	723.5990600585938	272.4615478515625	614.1116333007812	795.1312255859375	273.2400817871094	569.1198120117188	778.4810791015625	324.6703186035156	263.3885803222656	1576.797241210938	94.65642547607422	434.4221496582031	1611.407592773438	-19.14774703979492	421.3818969726562	1612.972045898438	80.99822998046875	255.7891693115234	1565.890380859375	-49.45973968505859	341.0161437988281	904.0554809570312	-122.5376739501953	401.8087463378906	926.1011352539062	187.6841278076172	450.8169860839844	937.5477294921875	-46.34086990356445	499.1661376953125	462.3927917480469	-70.27201080322266	467.8349914550781	600.256591796875	-99.72410583496094	422.9906311035156	44.56933975219727	-34.68398284912109	473.0764770507812	237.8573455810547	-63.49576187133789	631.13525390625	36.71079254150391	23.23352241516113	560.8438110351562	25.10383224487305	65.32573699951172	548.1578369140625	36.83588790893555	-47.00917816162109	390.247314453125	38.93495941162109	32.8558464050293	378.5751953125	445.2774047851562	206.9510192871094	33.42526245117188	211.9471282958984	148.3731231689453	305.8906860351562	350.24609375	193.6271820068359	107.839241027832	33.08499908447266	105.1383972167969	87.61920166015625	83.00606536865234	61.84012603759766	51.67313766479492	111.9749603271484	170.5039672851562	23.74862480163574	259.0506591796875	98.87381744384766	224.9562225341797	944.0958251953125	97.92415618896484	384.2326049804688	687.5484619140625	224.3545989990234	293.7970275878906	888.7230834960938	214.4065856933594	307.4013366699219	693.7477416992188	-181.7709045410156	277.465087890625	613.32568359375	-157.680419921875	nan	nan	nan	nan	nan	nan	nan	nan	nan	nan	nan	nan	
338	3.37	247.9293975830078	952.4624633789062	-32.08380508422852	233.4100036621094	1009.909790039062	39.64636993408203	455.9895629882812	1204.67431640625	38.53179931640625	219.4122772216797	1128.561157226562	35.66812515258789	249.172119140625	1378.256469726562	17.32847213745117	406.1040954589844	1326.522705078125	30.0485897064209	203.4296417236328	1239.38818359375	86.97255706787109	244.4410705566406	1339.122436523438	-82.94520568847656	331.4810791015625	1357.401611328125	-136.5876922607422	306.3361206054688	1239.39453125	-201.9577484130859	292.5299377441406	1034.744750976562	-210.5042419433594	232.3067779541016	1032.670532226562	-149.3064117431641	344.0666809082031	776.3475341796875	-168.1529083251953	299.7188110351562	775.2589721679688	-221.32421875	288.7144165039062	929.8731689453125	-215.9389801025391	280.8005676269531	707.4568481445312	-214.6742858886719	299.8959655761719	1369.748779296875	182.8475952148438	295.7582092285156	1304.027954101562	248.0279083251953	367.8359985351562	1047.578125	296.2389831542969	333.5729064941406	1024.139282226562	210.8857727050781	549.767333984375	871.7626342773438	258.6564636230469	523.1907958984375	847.150634765625	326.4535522460938	413.2435607910156	991.3673706054688	309.623779296875	628.9198608398438	718.2559204101562	273.8634338378906	613.9234008789062	790.104736328125	274.5417785644531	568.3125610351562	774.787841796875	325.4294128417969	272.492431640625	1577.933959960938	94.14774322509766	443.6503601074219	1612.645751953125	-19.4777946472168	430.4193725585938	1614.255249023438	80.69205474853516	265.0769653320312	1566.919921875	-49.97103500366211	350.2233276367188	905.4448852539062	-123.5184020996094	410.650390625	927.5554809570312	186.9049377441406	459.71435546875	938.6304931640625	-47.20684051513672	502.7512817382812	461.9941101074219	-70.49068450927734	472.9572448730469	600.2699584960938	-99.90229034423828	423.0511474609375	44.62589645385742	-34.61689758300781	474.8011474609375	237.6622619628906	-63.65129089355469	631.2310791015625	36.65046310424805	23.30204582214355	560.8541259765625	25.16724014282227	65.37771606445312	548.2291259765625	36.81389236450195	-46.93499755859375	390.3280639648438	39.10819625854492	32.93672180175781	398.7767944335938	447.7991638183594	207.7425537109375	52.62882614135742	216.6045379638672	148.8953247070312	326.4678039550781	353.0037841796875	194.2361145019531	126.8742904663086	35.62107849121094	107.9985656738281	107.1785736083984	86.47719573974609	64.04820251464844	70.45767974853516	116.6932373046875	172.1600952148438	43.51408004760742	263.3120422363281	98.8995361328125	233.5078125	944.364013671875	97.26667022705078	397.4397583007812	689.5322875976562	224.3176422119141	302.9256591796875	889.3328857421875	213.5699615478516	335.0663757324219	696.4826049804688	-183.4968719482422	307.1061096191406	614.305908203125	-159.5703430175781	nan	nan	nan	nan	nan	nan	nan	nan	nan	nan	nan	nan	
339	3.38	256.7000427246094	953.3170776367188	-32.5150146484375	241.9317016601562	1011.087524414062	38.64992904663086	464.6596984863281	1205.724243164062	39.16207122802734	228.3858184814453	1129.840576171875	34.21754455566406	258.1987609863281	1379.574462890625	16.36070442199707	414.984375	1327.604370117188	30.33142280578613	212.0953979492188	1240.672973632812	85.45473480224609	254.2073974609375	1340.442626953125	-84.11292266845703	341.7799377441406	1358.542358398438	-136.8993072509766	318.9177856445312	1240.103515625	-202.7153778076172	309.6396484375	1035.19775390625	-212.4642944335938	247.5470428466797	1031.72216796875	-153.1883239746094	367.5108947753906	778.7083129882812	-168.939453125	324.4765625	776.0809936523438	-223.0810089111328	308.7108459472656	930.23046875	-218.1522369384766	308.1259155273438	707.668212890625	-216.9804840087891	307.8179626464844	1370.835205078125	182.3629455566406	302.8669738769531	1304.91943359375	247.255615234375	372.2389221191406	1047.694458007812	295.178955078125	338.6461486816406	1025.005004882812	209.4710388183594	551.2437133789062	868.4168090820312	259.2375183105469	523.4570922851562	844.4226684570312	326.8111877441406	416.6682739257812	990.8214111328125	308.852294921875	626.7422485351562	713.087890625	275.4601440429688	613.2625122070312	785.1543579101562	276.03466796875	567.0054931640625	771.2181396484375	326.2841796875	281.5393676757812	1579.076293945312	93.69895172119141	452.8273620605469	1613.830444335938	-19.74425888061523	439.4141235351562	1615.4814453125	80.43927001953125	274.3009643554688	1567.9755859375	-50.4344482421875	359.2234191894531	906.8209228515625	-124.5331268310547	419.3648681640625	929.1451416015625	186.0994567871094	468.3511657714844	939.67333984375	-48.12056732177734	506.2235412597656	461.6460876464844	-70.64078521728516	477.895263671875	600.2722778320312	-99.90412139892578	423.1052551269531	44.69693756103516	-34.53713607788086	476.4880676269531	237.4944000244141	-63.72599792480469	631.3283081054688	36.57759857177734	23.36851119995117	560.867431640625	25.20949172973633	65.439453125	548.2817993164062	36.8132438659668	-46.85795593261719	390.4187622070312	39.27656555175781	33.03259658813477	418.6977233886719	450.53955078125	208.5086669921875	72.49279022216797	219.8403778076172	149.4624786376953	347.0305786132812	355.68115234375	194.7797241210938	148.1027526855469	38.30942916870117	110.68603515625	128.2489013671875	89.15943908691406	66.12335968017578	90.90137481689453	120.3124313354492	173.8097534179688	63.43264770507812	266.0501098632812	99.01465606689453	241.9663848876953	944.7515869140625	96.70738983154297	410.5341491699219	691.7947387695312	224.4206237792969	311.9398803710938	890.1539306640625	212.8361358642578	362.6917114257812	699.4194946289062	-184.9334716796875	337.3656005859375	616.2291259765625	-161.7078094482422	nan	nan	nan	nan	nan	nan	nan	nan	nan	nan	nan	nan	
